<svg width="32" height="56" viewBox="117 0 31 56" fill="none" xmlns="http://www.w3.org/2000/svg">
    <path d="M117.589 7.81714L119.014 36.5301H121.182C122.345 36.5301 123.009 35.7864 123.009 34.5719V21.956H126.637V36C126.637 36 126.637 35.9921 126.637 35.9881V36.2453V36C126.629 38.7415 124.524 39.8017 121.185 39.782H119.18L119.366 43.5046H122.028C127.282 43.5046 130.336 41.1191 130.336 36.7398V21.9521H133.952V36.7398C133.952 42.9587 130.779 46.8712 122.028 46.8712H119.532L119.674 49.6642L143.755 54.807L147.094 0L117.589 7.81714Z" fill="url(#paint0_linear_947_3161)"/>
    <path d="M141.29 5.16275C141.298 7.4256 140.602 9.67659 138.932 11.2827C138.746 11.4568 138.596 11.6151 138.446 11.8247C139.083 11.9869 139.795 12.1175 140.483 12.2441C141.199 12.3232 141.86 12.3825 142.592 12.4537C142.639 12.5131 142.805 12.5487 142.774 12.6871C142.698 12.9205 142.398 12.9641 142.212 13.1421C141.001 14.0678 139.435 14.2181 138.034 14.7087C137.742 15.3021 137.615 15.9469 137.267 16.5047C136.151 17.8893 134.711 18.9417 133.196 19.6181C133.022 19.63 132.907 19.6537 132.753 19.6419C132.579 19.3531 132.884 19.0959 132.903 18.8032C133.054 17.4937 133.24 16.2951 133.544 15.1162C133.627 14.859 133.73 14.6137 133.778 14.3605C131.8 14.3487 129.928 14.2221 127.923 14.1509C127.749 14.2537 127.056 13.9531 127.056 13.8937V13.8344C127.836 13.2212 128.738 12.7346 129.659 12.3667C130.087 12.1966 130.498 11.9948 130.925 11.8405C131.214 11.7377 132.262 11.5992 132.417 11.3342L132.464 11.2551C132.464 11.2551 132.472 9.74385 132.488 9.57769C132.524 8.38692 132.373 7.08934 132.698 5.96187C132.674 5.77593 132.777 5.56626 132.884 5.40406C133.188 5.40406 133.382 5.81154 133.675 5.92626C134.403 7.18033 135.253 8.39879 135.74 9.76758C137.492 8.6322 138.905 6.99835 140.523 5.6256L141.037 4.98472C141.211 4.93725 141.203 5.09154 141.294 5.17066L141.29 5.16275Z" fill="#F7D300"/>
    <defs>
        <linearGradient id="paint0_linear_947_3161" x1="130.508" y1="0.2232" x2="130.508" y2="57.1989" gradientUnits="userSpaceOnUse">
            <stop stop-color="#00ABEB"/>
            <stop offset="1" stop-color="#00498A"/>
        </linearGradient>
    </defs>
</svg>