<svg width="148" height="72" viewBox="0 0 148 72" fill="none" xmlns="http://www.w3.org/2000/svg">
<g clip-path="url(#clip0_1_77)">
<path d="M117.589 7.81714L119.014 36.5301H121.182C122.345 36.5301 123.009 35.7864 123.009 34.5719V21.956H126.637V36C126.637 36 126.637 35.9921 126.637 35.9881V36.2453V36C126.629 38.7415 124.524 39.8017 121.185 39.782H119.18L119.366 43.5046H122.028C127.282 43.5046 130.336 41.1191 130.336 36.7398V21.9521H133.952V36.7398C133.952 42.9587 130.779 46.8712 122.028 46.8712H119.532L119.674 49.6642L143.755 54.807L147.094 0L117.589 7.81714Z" fill="url(#paint0_linear_1_77)"/>
<path d="M141.29 5.16264C141.298 7.42549 140.602 9.67648 138.932 11.2826C138.746 11.4567 138.596 11.6149 138.446 11.8246C139.083 11.9868 139.795 12.1174 140.483 12.244C141.199 12.3231 141.86 12.3824 142.592 12.4536C142.639 12.513 142.805 12.5486 142.774 12.687C142.698 12.9204 142.398 12.964 142.212 13.142C141.001 14.0677 139.435 14.218 138.034 14.7086C137.742 15.302 137.615 15.9468 137.267 16.5046C136.151 17.8892 134.711 18.9415 133.196 19.618C133.022 19.6299 132.907 19.6536 132.753 19.6418C132.579 19.353 132.884 19.0958 132.903 18.8031C133.054 17.4936 133.24 16.2949 133.544 15.116C133.627 14.8589 133.73 14.6136 133.778 14.3604C131.8 14.3486 129.928 14.222 127.923 14.1508C127.749 14.2536 127.056 13.953 127.056 13.8936V13.8343C127.836 13.2211 128.738 12.7345 129.659 12.3666C130.087 12.1965 130.498 11.9947 130.925 11.8404C131.214 11.7376 132.262 11.5991 132.417 11.3341L132.464 11.2549C132.464 11.2549 132.472 9.74373 132.488 9.57758C132.524 8.38681 132.373 7.08923 132.698 5.96176C132.674 5.77582 132.777 5.56615 132.884 5.40395C133.188 5.40395 133.382 5.81143 133.675 5.92615C134.403 7.18022 135.253 8.39868 135.74 9.76747C137.492 8.63209 138.905 6.99824 140.523 5.62549L141.037 4.98461C141.211 4.93714 141.203 5.09143 141.294 5.17055L141.29 5.16264Z" fill="white"/>
<path d="M100.622 53.462V45.178H98.2128V53.462H95.8352V45.178H93.422V53.462H88.3662C88.0101 53.462 88.3859 54.0237 88.5719 54.2136C88.7657 54.4035 89.0703 54.7042 89.553 54.7042H107.549V53.462H100.618H100.622Z" fill="white"/>
<path d="M83.5991 49.6523H69.753C69.393 49.6523 69.7767 50.218 69.9626 50.4079C70.1565 50.5938 70.4572 50.8906 70.9398 50.8906H81.2057V57.4062C81.2057 58.3754 82.175 57.9125 82.5073 57.6791C83.4686 57.0026 83.5991 56.4132 83.5991 55.7842V49.6523Z" fill="white"/>
<path d="M79.2396 38.0611H74.2906V35.8536H72.2651V38.0611H67.1182C66.7622 38.0611 67.142 38.6268 67.3279 38.8167C67.5178 39.0026 67.8224 39.2993 68.3051 39.2993H70.8963C69.3297 40.0352 68.135 41.4989 68.135 43.1763C68.135 45.5974 70.4769 47.5596 73.2145 47.5596C75.9521 47.5596 78.302 45.5934 78.302 43.1763C78.302 41.4989 77.1033 40.0352 75.5367 39.2993H79.2396V38.0611ZM75.9284 43.1763C75.9284 44.8774 74.7178 46.2659 73.2185 46.2659C71.7191 46.2659 70.5125 44.8774 70.5125 43.1763C70.5125 41.4752 71.7231 40.0866 73.2185 40.0866C74.7139 40.0866 75.9284 41.4752 75.9284 43.1763Z" fill="white"/>
<path d="M103.375 51.8914L102.798 51.4365C103.676 49.6919 103.779 45.3798 103.704 39.3903H92.2391C91.7525 39.3903 91.4123 39.0106 91.2383 38.8127C91.0523 38.607 90.6923 38.0571 91.0523 38.0571H106.097C106.2 45.3798 105.369 49.8699 103.379 51.8914H103.375Z" fill="white"/>
<path d="M46.4083 41.2892C46.4083 40.7908 46.2541 40.411 45.9613 40.1538C45.6646 39.8967 45.7279 39.8927 45.0791 39.6475L45.2611 39.2004C45.5974 39.2479 46.7248 39.2835 47.1442 39.2914H53.5688V40.6523H48.8097V48.8571C48.8097 49.3477 48.9798 49.6879 49.3319 49.6879C50.222 49.6879 50.9064 49.5455 52.113 49.2527C53.2246 48.9837 54.7516 48.6593 55.709 48.2756L55.6892 38.5437C55.6892 38.0453 55.5389 37.6694 55.2461 37.4084C54.9494 37.1552 54.9732 37.1116 54.3244 36.8743L54.5064 36.4233L57.9916 37.1987C57.9798 37.3609 57.9521 37.6536 57.9125 38.0611C57.873 38.4725 57.8571 38.8365 57.8571 39.153V43.8409H60.2545V36.3837C60.2585 35.8813 60.1121 35.5055 59.8154 35.2484C59.5187 34.9912 59.5464 34.9556 58.8936 34.7103L59.0756 34.2633L62.6281 35.0347C62.6123 35.1851 62.5925 35.4659 62.5609 35.8734C62.5292 36.2809 62.5134 36.6448 62.5134 36.9653V55.6497C62.5134 56.3578 62.5174 58.2567 61.5521 58.9292C61.2158 59.1626 60.2505 59.6295 60.2505 58.6602V45.2057H57.8532V55.2185C57.8532 55.8435 57.8097 56.433 56.8444 57.1055C56.5121 57.3429 55.7051 57.8097 55.7051 56.8404V49.2686C54.716 49.7631 53.1059 50.2259 51.8677 50.6532C50.5385 51.116 49.1341 51.3415 48.2083 51.3415C47.5754 51.3415 47.1165 51.2229 46.8316 50.9815C46.5982 50.7837 46.4677 50.396 46.4281 49.8264H46.4202L46.4123 41.2774L46.4083 41.2892Z" fill="white"/>
<path d="M81.2295 36.3916C81.2295 35.8892 81.0831 35.5134 80.7864 35.2563C80.4936 34.9991 80.5174 34.9635 79.8686 34.7182L80.0506 34.2712L83.7257 35.0426C83.7099 35.193 83.6901 35.4738 83.6585 35.8813C83.6268 36.2888 83.615 36.6527 83.615 36.9732V41.0756H86.0598V42.4127H83.615V46.1512C83.615 46.7763 83.4923 47.3657 82.527 48.0343C82.1908 48.2756 81.2216 48.7385 81.2216 47.7692L81.2334 36.3877L81.2295 36.3916Z" fill="white"/>
<path d="M33.749 38.429C32.131 41.218 25.0299 44.4936 23.4752 44.8734C23.4752 44.8734 23.4673 44.8734 23.4673 44.8774L23.7521 45.5934C25.196 45.2136 28.8831 44.1811 31.8659 42.5354C33.4602 42.8914 35.9763 44.0703 38.4171 45.5974L39.9442 43.7895C37.5231 42.6145 35.3749 42.0448 33.1121 41.7402C33.7213 41.3446 36.7398 39.244 37.8119 37.6655C38.0097 37.2501 37.3371 37.1908 36.989 37.1908H24.8993C24.5829 37.1908 24.9033 37.6892 25.0615 37.8712C25.2198 38.0453 25.5046 38.433 25.924 38.433H33.753L33.749 38.429Z" fill="white"/>
<path d="M41.6928 47.2114H21.5486C21.1767 47.1758 21.5723 47.7653 21.7701 47.967C21.9679 48.1648 22.2884 48.4457 22.7947 48.4457H30.7147V57.3468C30.7147 58.3635 31.6642 57.8769 32.0163 57.6277C33.033 56.9196 33.0963 56.3024 33.0963 55.6418V48.4378H41.6928V47.2075V47.2114Z" fill="white"/>
<path d="M0.977143 38.0611C0.621099 38.0611 0.996923 38.6268 1.18681 38.8127C1.3767 39.0026 1.68132 39.2954 2.16396 39.2954H7.65099C5.41582 44.4501 1.15912 47.8642 0 48.5644L0.272967 49.2448C1.3767 48.778 4.32396 47.2431 7.02989 44.189C8.71516 45.1938 9.89011 47.6782 10.1987 48.8097L12.2677 47.3815C11.5279 46.2738 10.1037 44.5965 7.72615 43.3503C8.78637 42.1398 9.95736 40.6286 10.9068 38.5279C11.0927 38.1165 10.8 38.0571 10.4558 38.0571H0.977143V38.0611Z" fill="white"/>
<path d="M15.1437 36.3916C15.1437 35.8892 14.9934 35.5134 14.7007 35.2563C14.404 34.9991 14.4317 34.9635 13.7829 34.7182L13.9609 34.2712L17.636 35.0426C17.6242 35.193 17.6004 35.4738 17.5688 35.8813C17.5371 36.2888 17.5213 36.6527 17.5213 36.9732V50.3525C17.5213 50.9815 17.3987 51.571 16.4374 52.2435C16.0971 52.4809 15.1319 52.9477 15.1319 51.9745V43.5007H12.5881C12.1055 43.5007 11.8009 43.204 11.611 43.0141C11.4171 42.8321 11.0413 42.2624 11.3974 42.2624H15.1319V39.1648L15.1398 36.3956L15.1437 36.3916Z" fill="white"/>
<path d="M5.91429 52.1327C5.91429 51.6343 5.76791 51.2545 5.47121 50.9974C5.17451 50.7402 5.2022 50.7007 4.54945 50.4633L4.73143 50.0163L8.41055 50.7917C8.39473 50.938 8.37099 51.2229 8.3433 51.6303C8.31165 52.0418 8.29582 52.4018 8.29582 52.7222V55.4756C8.29582 55.7209 8.37099 55.8949 8.52923 56.0136C8.68747 56.1363 8.84967 56.1798 9.01583 56.1798H17.5213V57.418H8.28C7.67868 57.418 7.13275 57.3547 6.65802 57.1292C6.2189 56.9156 5.95385 56.4607 5.91033 55.7684V52.1407L5.91429 52.1327Z" fill="white"/>
<path d="M7.51648 65.3143V65.5081C6.89143 65.5596 6.82417 65.6189 6.82417 66.5407V69.5235C6.82417 70.4532 6.72132 71.0466 6.11604 71.5688C5.86681 71.7785 5.53846 71.9407 5.30505 72L5.22593 71.8061C5.73231 71.5846 5.96571 71.2404 6.06066 70.7578C6.13187 70.3622 6.14769 69.9033 6.14769 69.211V66.5407C6.14769 65.6189 6.08439 65.5596 5.39209 65.5081V65.3143H7.51253H7.51648Z" fill="white"/>
<path d="M9.11473 66.5407C9.11473 65.6189 9.05143 65.5596 8.40659 65.5081V65.3143H11.9235C11.9314 65.4567 11.971 66.0738 12.0106 66.5486L11.8088 66.5723C11.7297 66.149 11.6387 65.9314 11.52 65.793C11.3934 65.6505 11.1284 65.5912 10.6378 65.5912H10.0286C9.80308 65.5912 9.78725 65.607 9.78725 65.8523V67.7789H10.5982C11.2906 67.7789 11.3143 67.7275 11.3934 67.1024H11.5952V68.7758H11.3934C11.3538 68.4633 11.3301 68.2932 11.2233 68.2022C11.1204 68.1112 10.9424 68.0914 10.5982 68.0914H9.78725V69.5868C9.78725 70.0694 9.83473 70.3226 9.98901 70.4255C10.1433 70.5284 10.4321 70.5284 10.8079 70.5284C11.2668 70.5284 11.6426 70.4848 11.8207 70.2831C11.9591 70.1327 12.0857 69.844 12.2044 69.4563L12.4062 69.48C12.3666 69.7174 12.1886 70.5798 12.1253 70.8053H8.32747V70.6114C9.05143 70.56 9.11473 70.5007 9.11473 69.5789V66.5367V66.5407Z" fill="white"/>
<path d="M17.8101 68.3011C17.8101 69.8717 17.0229 70.6589 16.0615 70.6589C14.8905 70.6589 14.0796 69.5077 14.0796 67.8778C14.0796 66.2479 14.8826 65.4686 15.8281 65.4686C16.9754 65.4686 17.8101 66.4734 17.8101 68.3011ZM16.0338 65.1877C14.2418 65.1877 13.2963 66.6989 13.2963 68.1191C13.2963 69.7174 14.3723 70.9319 15.8914 70.9319C17.4105 70.9319 18.5895 69.7411 18.5895 67.9807C18.5895 66.3152 17.4264 65.1837 16.0378 65.1837L16.0338 65.1877Z" fill="white"/>
<path d="M24.3772 70.8686H24.1675L20.6822 66.4141H20.6664V68.5701C20.6664 69.4563 20.698 69.9152 20.7297 70.1763C20.7692 70.473 20.9868 70.5916 21.5169 70.6154V70.8092H19.5903V70.6154C20.0334 70.5996 20.2391 70.473 20.2826 70.1763C20.3143 69.9152 20.3459 69.4563 20.3459 68.5701V66.7345C20.3459 66.1253 20.338 65.9908 20.1917 65.7969C20.0374 65.5952 19.8237 65.5358 19.4835 65.5081V65.3143H20.6545L24.0369 69.5749H24.0528V67.5534C24.0528 66.6672 24.0211 66.2083 23.9895 65.9472C23.9499 65.6505 23.7323 65.5319 23.2022 65.5081V65.3143H25.1288V65.5081C24.6857 65.524 24.48 65.6505 24.4365 65.9472C24.4048 66.2083 24.3732 66.6672 24.3732 67.5534V70.8686H24.3772Z" fill="white"/>
<path d="M28.1512 65.3143V65.5081C27.5262 65.5596 27.4589 65.6189 27.4589 66.5407V69.5235C27.4589 70.4532 27.3561 71.0466 26.7508 71.5688C26.5015 71.7785 26.1732 71.9407 25.9398 72L25.8607 71.8061C26.367 71.5846 26.6004 71.2404 26.6954 70.7578C26.7666 70.3622 26.7824 69.9033 26.7824 69.211V66.5407C26.7824 65.6189 26.7191 65.5596 26.0268 65.5081V65.3143H28.1473H28.1512Z" fill="white"/>
<path d="M31.0668 65.3143V65.5081C30.4259 65.5596 30.3587 65.6189 30.3587 66.5407V68.309C30.3587 69.029 30.4457 69.567 30.695 69.9468C30.9442 70.3187 31.3121 70.5283 31.8501 70.5283C32.3565 70.5283 32.7719 70.2989 33.029 69.8954C33.2941 69.4721 33.389 68.7283 33.389 68.0202V67.5653C33.389 66.6791 33.3574 66.2123 33.3257 65.9512C33.2862 65.6545 33.0686 65.5358 32.5385 65.5121V65.3182H34.4651V65.5121C34.022 65.5279 33.8163 65.6545 33.7728 65.9512C33.7411 66.2123 33.7095 66.6791 33.7095 67.5653V68.131C33.7095 69.1121 33.5631 69.8044 33.1002 70.3266C32.7561 70.7143 32.1785 70.9358 31.6128 70.9358C31.1697 70.9358 30.6673 70.8251 30.2954 70.5046C29.8681 70.1407 29.6783 69.567 29.6783 68.6018V66.5407C29.6783 65.6189 29.615 65.5596 28.9385 65.5081V65.3143H31.0589H31.0668Z" fill="white"/>
<path d="M39.5683 65.3143V65.5081C38.9275 65.5596 38.8602 65.6189 38.8602 66.5407V68.309C38.8602 69.029 38.9472 69.567 39.1965 69.9468C39.4457 70.3187 39.8136 70.5283 40.3516 70.5283C40.858 70.5283 41.2734 70.2989 41.5305 69.8954C41.7956 69.4721 41.8905 68.7283 41.8905 68.0202V67.5653C41.8905 66.6791 41.8589 66.2123 41.8272 65.9512C41.7877 65.6545 41.5701 65.5358 41.04 65.5121V65.3182H42.9666V65.5121C42.5235 65.5279 42.3178 65.6545 42.2743 65.9512C42.2426 66.2123 42.211 66.6791 42.211 67.5653V68.131C42.211 69.1121 42.0646 69.8044 41.6018 70.3266C41.2576 70.7143 40.68 70.9358 40.1182 70.9358C39.6752 70.9358 39.1688 70.8251 38.8009 70.5046C38.3736 70.1407 38.1837 69.567 38.1837 68.6018V66.5407C38.1837 65.6189 38.1204 65.5596 37.4439 65.5081V65.3143H39.5644H39.5683Z" fill="white"/>
<path d="M48.5407 70.8686H48.331L44.8457 66.4141H44.8299V68.5701C44.8299 69.4563 44.8615 69.9152 44.8932 70.1763C44.9327 70.473 45.1503 70.5916 45.6804 70.6154V70.8092H43.7538V70.6154C44.1969 70.5996 44.4026 70.473 44.4462 70.1763C44.4778 69.9152 44.5095 69.4563 44.5095 68.5701V66.7345C44.5095 66.1253 44.5015 65.9908 44.3552 65.7969C44.2009 65.5952 43.9873 65.5358 43.647 65.5081V65.3143H44.818L48.2004 69.5749H48.2163V67.5534C48.2163 66.6672 48.1846 66.2083 48.153 65.9472C48.1134 65.6505 47.8958 65.5319 47.3657 65.5081V65.3143H49.2923V65.5081C48.8492 65.524 48.6435 65.6505 48.6 65.9472C48.5684 66.2083 48.5367 66.6672 48.5367 67.5534V70.8686H48.5407Z" fill="white"/>
<path d="M51.5354 69.5829C51.5354 70.5046 51.5987 70.564 52.2593 70.6154V70.8092H50.1389V70.6154C50.7956 70.564 50.8629 70.5046 50.8629 69.5829V66.5407C50.8629 65.6189 50.7996 65.5596 50.1389 65.5081V65.3143H52.2593V65.5081C51.6026 65.5596 51.5354 65.6189 51.5354 66.5407V69.5829Z" fill="white"/>
<path d="M55.4598 70.8606C54.9139 69.3494 54.1424 67.2606 53.7983 66.3231C53.5411 65.6228 53.4303 65.5635 52.9477 65.5121V65.3182H54.898V65.5121L54.6409 65.5477C54.3442 65.5912 54.2967 65.6743 54.3837 65.9354C54.5934 66.5604 55.2106 68.2259 55.7961 69.8083C56.2154 68.6413 56.9037 66.7226 57.0818 66.1727C57.2361 65.6901 57.153 65.5793 56.793 65.5398L56.5517 65.516V65.3222H58.3081V65.516C57.7701 65.5754 57.6989 65.6347 57.4022 66.3784C57.2994 66.6395 56.3024 69.1516 55.7011 70.8646H55.4598V70.8606Z" fill="white"/>
<path d="M59.7244 66.5407C59.7244 65.6189 59.6611 65.5596 59.0163 65.5081V65.3143H62.5332C62.5411 65.4567 62.5807 66.0738 62.6202 66.5486L62.4185 66.5723C62.3394 66.149 62.2484 65.9314 62.1297 65.793C62.0031 65.6505 61.738 65.5912 61.2475 65.5912H60.6383C60.4128 65.5912 60.3969 65.607 60.3969 65.8523V67.7789H61.2079C61.9002 67.7789 61.924 67.7275 62.0031 67.1024H62.2049V68.7758H62.0031C61.9635 68.4633 61.9398 68.2932 61.833 68.2022C61.7301 68.1112 61.5521 68.0914 61.2079 68.0914H60.3969V69.5868C60.3969 70.0694 60.4444 70.3226 60.5987 70.4255C60.753 70.5284 61.0418 70.5284 61.4176 70.5284C61.8765 70.5284 62.2523 70.4848 62.4303 70.2831C62.5688 70.1327 62.6954 69.844 62.8141 69.4563L63.0158 69.48C62.9763 69.7174 62.7983 70.5798 62.735 70.8053H58.9372V70.6114C59.6611 70.56 59.7244 70.5007 59.7244 69.5789V66.5367V66.5407Z" fill="white"/>
<path d="M65.247 65.8325C65.247 65.6624 65.2708 65.6229 65.3182 65.6031C65.3815 65.5793 65.4963 65.5596 65.7692 65.5596C66.3705 65.5596 66.9798 65.9156 66.9798 66.8018C66.9798 67.2171 66.8611 67.6286 66.513 67.9174C66.2954 68.1033 66.0382 68.1468 65.7099 68.1468H65.2431V65.8325H65.247ZM65.247 68.3921H65.6822C65.9314 68.3921 66.058 68.4752 66.1886 68.6967C66.4141 69.0923 66.7503 69.7213 66.9996 70.1011C67.3042 70.5679 67.585 70.8607 68.5108 70.8883H68.6215L68.6374 70.7261C68.3486 70.651 68.2022 70.5165 68.036 70.3029C67.8185 70.0497 67.6523 69.8202 67.3635 69.3732C67.1222 69.0013 66.7938 68.4158 66.6475 68.1626C67.2963 67.8818 67.7077 67.3833 67.7077 66.6831C67.7077 66.1925 67.498 65.8127 67.1776 65.6031C66.8809 65.3934 66.422 65.3143 65.9077 65.3143H63.8664V65.5081C64.5072 65.5596 64.5745 65.6189 64.5745 66.5407V69.5829C64.5745 70.5046 64.5112 70.564 63.8347 70.6154V70.8092H65.971V70.6154C65.3143 70.564 65.247 70.5046 65.247 69.5829V68.3921Z" fill="white"/>
<path d="M69.48 69.3218C69.6066 69.7174 70.018 70.6589 70.8686 70.6589C71.4778 70.6589 71.8655 70.2277 71.8655 69.567C71.8655 68.847 71.3433 68.5543 70.829 68.2892C70.564 68.1547 69.48 67.7552 69.48 66.7424C69.48 65.9077 70.0813 65.1877 71.1336 65.1877C71.3591 65.1877 71.6321 65.2391 71.7982 65.2985C71.9011 65.3341 72.0158 65.3736 72.1029 65.3934C72.1345 65.6901 72.182 66.0264 72.2492 66.5327L72.0475 66.5565C71.909 66.058 71.6875 65.4646 70.9556 65.4646C70.3859 65.4646 70.0892 65.9037 70.0892 66.4022C70.0892 67.0273 70.5165 67.3081 71.1257 67.593C71.6558 67.8382 72.4985 68.1864 72.4985 69.2347C72.4985 70.2158 71.7349 70.9319 70.7143 70.9319C70.4255 70.9319 70.1525 70.8725 69.9508 70.8053C69.749 70.738 69.6066 70.6708 69.5077 70.6272C69.4444 70.4057 69.3534 69.8084 69.2743 69.3494L69.476 69.3138L69.48 69.3218Z" fill="white"/>
<path d="M74.8681 69.5829C74.8681 70.5046 74.9314 70.564 75.5921 70.6154V70.8092H73.4716V70.6154C74.1283 70.564 74.1956 70.5046 74.1956 69.5829V66.5407C74.1956 65.6189 74.1323 65.5596 73.4716 65.5081V65.3143H75.5921V65.5081C74.9354 65.5596 74.8681 65.6189 74.8681 66.5407V69.5829Z" fill="white"/>
<path d="M79.0615 69.5829C79.0615 70.5046 79.1248 70.564 79.9121 70.6154V70.8092H77.5661V70.6154C78.3218 70.564 78.385 70.5046 78.385 69.5829V65.5952H78.0092C77.2932 65.5952 77.0795 65.7059 76.9569 65.8642C76.8699 65.9829 76.771 66.2202 76.676 66.5921H76.4743C76.5059 66.0778 76.5534 65.5358 76.5692 65.1046H76.68C76.7987 65.2985 76.8817 65.3143 77.0993 65.3143H80.3908C80.6004 65.3143 80.64 65.2629 80.7666 65.1046H80.8774C80.8853 65.4607 80.9248 66.0778 80.9644 66.5684L80.7626 66.5921C80.6835 66.1846 80.5925 65.9512 80.4738 65.8128C80.3354 65.6506 80.0901 65.5912 79.5916 65.5912H79.0536V69.5789L79.0615 69.5829Z" fill="white"/>
<path d="M84.2637 69.5829C84.2637 70.5046 84.327 70.564 85.0985 70.6154V70.8092H82.7842V70.6154C83.524 70.564 83.5873 70.5046 83.5873 69.5829V68.6176C83.5873 68.4672 83.5635 68.3881 83.4092 68.1112C83.0492 67.4505 82.7367 66.8413 82.3886 66.2163C82.0444 65.5912 82.0128 65.5635 81.5459 65.5081V65.3143H83.4804V65.5081L83.1125 65.5596C82.9108 65.5952 82.8554 65.6703 82.9939 65.9314C83.3539 66.6396 83.7257 67.3437 84.1174 68.036C84.4536 67.3596 84.8176 66.6673 85.1143 65.9749C85.2528 65.6703 85.1855 65.5872 84.8809 65.5516L84.5604 65.5081V65.3143H86.3288V65.5081C85.7908 65.5596 85.7512 65.6703 85.415 66.2281C85.055 66.8215 84.7503 67.4031 84.4022 68.0796C84.2835 68.309 84.2677 68.3604 84.2677 68.5345V69.5829H84.2637Z" fill="white"/>
</g>
<defs>
<linearGradient id="paint0_linear_1_77" x1="130.508" y1="0.2232" x2="130.508" y2="57.1989" gradientUnits="userSpaceOnUse">
<stop stop-color="white"/>
<stop offset="1" stop-color="white"/>
</linearGradient>
<clipPath id="clip0_1_77">
<rect width="147.094" height="72" fill="white"/>
</clipPath>
</defs>
</svg>
