<svg width="148" height="72" viewBox="0 0 148 72" fill="none" xmlns="http://www.w3.org/2000/svg">
<g clip-path="url(#clip0_947_3161)">
<path d="M117.589 7.81714L119.014 36.5301H121.182C122.345 36.5301 123.009 35.7864 123.009 34.5719V21.956H126.637V36C126.637 36 126.637 35.9921 126.637 35.9881V36.2453V36C126.629 38.7415 124.524 39.8017 121.185 39.782H119.18L119.366 43.5046H122.028C127.282 43.5046 130.336 41.1191 130.336 36.7398V21.9521H133.952V36.7398C133.952 42.9587 130.779 46.8712 122.028 46.8712H119.532L119.674 49.6642L143.755 54.807L147.094 0L117.589 7.81714Z" fill="url(#paint0_linear_947_3161)"/>
<path d="M141.29 5.16275C141.298 7.4256 140.602 9.67659 138.932 11.2827C138.746 11.4568 138.596 11.6151 138.446 11.8247C139.083 11.9869 139.795 12.1175 140.483 12.2441C141.199 12.3232 141.86 12.3825 142.592 12.4537C142.639 12.5131 142.805 12.5487 142.774 12.6871C142.698 12.9205 142.398 12.9641 142.212 13.1421C141.001 14.0678 139.435 14.2181 138.034 14.7087C137.742 15.3021 137.615 15.9469 137.267 16.5047C136.151 17.8893 134.711 18.9417 133.196 19.6181C133.022 19.63 132.907 19.6537 132.753 19.6419C132.579 19.3531 132.884 19.0959 132.903 18.8032C133.054 17.4937 133.24 16.2951 133.544 15.1162C133.627 14.859 133.73 14.6137 133.778 14.3605C131.8 14.3487 129.928 14.2221 127.923 14.1509C127.749 14.2537 127.056 13.9531 127.056 13.8937V13.8344C127.836 13.2212 128.738 12.7346 129.659 12.3667C130.087 12.1966 130.498 11.9948 130.925 11.8405C131.214 11.7377 132.262 11.5992 132.417 11.3342L132.464 11.2551C132.464 11.2551 132.472 9.74385 132.488 9.57769C132.524 8.38692 132.373 7.08934 132.698 5.96187C132.674 5.77593 132.777 5.56626 132.884 5.40406C133.188 5.40406 133.382 5.81154 133.675 5.92626C134.403 7.18033 135.253 8.39879 135.74 9.76758C137.492 8.6322 138.905 6.99835 140.523 5.6256L141.037 4.98472C141.211 4.93725 141.203 5.09154 141.294 5.17066L141.29 5.16275Z" fill="#F7D300"/>
<path d="M100.622 53.4619V45.178H98.2128V53.4619H95.8352V45.178H93.422V53.4619H88.3662C88.0101 53.4619 88.3859 54.0237 88.5719 54.2136C88.7657 54.4035 89.0703 54.7041 89.553 54.7041H107.549V53.4619H100.618H100.622Z" fill="#231815"/>
<path d="M83.5991 49.6521H69.753C69.393 49.6521 69.7767 50.2178 69.9627 50.4077C70.1565 50.5936 70.4572 50.8903 70.9398 50.8903H81.2057V57.4059C81.2057 58.3752 82.175 57.9123 82.5073 57.6789C83.4686 57.0024 83.5991 56.413 83.5991 55.784V49.6521Z" fill="#231815"/>
<path d="M79.2396 38.061H74.2906V35.8535H72.2651V38.061H67.1182C66.7622 38.061 67.142 38.6267 67.3279 38.8166C67.5178 39.0025 67.8224 39.2992 68.3051 39.2992H70.8963C69.3297 40.0351 68.1349 41.4988 68.1349 43.1762C68.1349 45.5973 70.4769 47.5595 73.2145 47.5595C75.9521 47.5595 78.302 45.5933 78.302 43.1762C78.302 41.4988 77.1033 40.0351 75.5367 39.2992H79.2396V38.061ZM75.9284 43.1762C75.9284 44.8773 74.7178 46.2658 73.2185 46.2658C71.7191 46.2658 70.5125 44.8773 70.5125 43.1762C70.5125 41.4751 71.7231 40.0865 73.2185 40.0865C74.7139 40.0865 75.9284 41.4751 75.9284 43.1762Z" fill="#231815"/>
<path d="M103.375 51.8914L102.798 51.4365C103.676 49.6919 103.779 45.3798 103.704 39.3903H92.2391C91.7525 39.3903 91.4123 39.0105 91.2382 38.8127C91.0523 38.607 90.6923 38.0571 91.0523 38.0571H106.097C106.2 45.3798 105.369 49.8699 103.379 51.8914H103.375Z" fill="#231815"/>
<path d="M46.4083 41.2891C46.4083 40.7907 46.254 40.4109 45.9613 40.1537C45.6646 39.8966 45.7279 39.8926 45.0791 39.6474L45.2611 39.2003C45.5973 39.2478 46.7248 39.2834 47.1442 39.2913H53.5688V40.6522H48.8097V48.857C48.8097 49.3476 48.9798 49.6878 49.3318 49.6878C50.222 49.6878 50.9064 49.5454 52.1129 49.2526C53.2246 48.9836 54.7516 48.6592 55.709 48.2755L55.6892 38.5436C55.6892 38.0452 55.5389 37.6693 55.2461 37.4082C54.9494 37.1551 54.9732 37.1115 54.3244 36.8742L54.5064 36.4232L57.9916 37.1986C57.9798 37.3608 57.9521 37.6535 57.9125 38.061C57.8729 38.4724 57.8571 38.8364 57.8571 39.1529V43.8408H60.2545V36.3836C60.2584 35.8812 60.1121 35.5054 59.8154 35.2482C59.5187 34.9911 59.5464 34.9555 58.8936 34.7102L59.0756 34.2632L62.6281 35.0346C62.6123 35.1849 62.5925 35.4658 62.5609 35.8733C62.5292 36.2808 62.5134 36.6447 62.5134 36.9652V55.6496C62.5134 56.3577 62.5173 58.2566 61.5521 58.9291C61.2158 59.1625 60.2505 59.6293 60.2505 58.6601V45.2056H57.8532V55.2184C57.8532 55.8434 57.8097 56.4329 56.8444 57.1054C56.5121 57.3428 55.705 57.8096 55.705 56.8403V49.2685C54.716 49.763 53.1059 50.2258 51.8677 50.6531C50.5384 51.1159 49.134 51.3414 48.2083 51.3414C47.5754 51.3414 47.1165 51.2227 46.8316 50.9814C46.5982 50.7836 46.4677 50.3959 46.4281 49.8263H46.4202L46.4123 41.2772L46.4083 41.2891Z" fill="#231815"/>
<path d="M81.2295 36.3914C81.2295 35.889 81.0831 35.5132 80.7864 35.2561C80.4936 34.9989 80.5174 34.9633 79.8686 34.718L80.0506 34.271L83.7257 35.0424C83.7099 35.1928 83.6901 35.4736 83.6585 35.8811C83.6268 36.2886 83.615 36.6525 83.615 36.973V41.0754H86.0598V42.4125H83.615V46.151C83.615 46.7761 83.4923 47.3655 82.5271 48.0341C82.1908 48.2754 81.2216 48.7382 81.2216 47.769L81.2334 36.3875L81.2295 36.3914Z" fill="#231815"/>
<path d="M33.749 38.4289C32.131 41.2179 25.0299 44.4935 23.4751 44.8733C23.4751 44.8733 23.4672 44.8733 23.4672 44.8773L23.7521 45.5933C25.196 45.2135 28.883 44.181 31.8659 42.5353C33.4602 42.8913 35.9762 44.0702 38.4171 45.5973L39.9441 43.7894C37.5231 42.6144 35.3749 42.0447 33.1121 41.7401C33.7213 41.3445 36.7398 39.2439 37.8118 37.6654C38.0096 37.25 37.3371 37.1907 36.989 37.1907H24.8993C24.5828 37.1907 24.9033 37.6891 25.0615 37.8711C25.2198 38.0452 25.5046 38.4329 25.9239 38.4329H33.7529L33.749 38.4289Z" fill="#231815"/>
<path d="M41.6927 47.2112H21.5486C21.1767 47.1756 21.5723 47.7651 21.7701 47.9668C21.9679 48.1646 22.2883 48.4455 22.7947 48.4455H30.7147V57.3466C30.7147 58.3633 31.6642 57.8767 32.0162 57.6275C33.033 56.9194 33.0963 56.3022 33.0963 55.6416V48.4376H41.6927V47.2073V47.2112Z" fill="#231815"/>
<path d="M0.977143 38.0608C0.621099 38.0608 0.996923 38.6266 1.18681 38.8125C1.3767 39.0024 1.68132 39.2951 2.16396 39.2951H7.65099C5.41582 44.4499 1.15912 47.8639 0 48.5641L0.272967 49.2446C1.3767 48.7778 4.32396 47.2428 7.02989 44.1888C8.71516 45.1936 9.89011 47.678 10.1987 48.8094L12.2677 47.3813C11.5279 46.2736 10.1037 44.5962 7.72615 43.3501C8.78637 42.1395 9.95736 40.6283 10.9068 38.5277C11.0927 38.1162 10.8 38.0569 10.4558 38.0569H0.977143V38.0608Z" fill="#231815"/>
<path d="M15.1438 36.3914C15.1438 35.889 14.9934 35.5132 14.7007 35.2561C14.404 34.9989 14.4317 34.9633 13.7829 34.718L13.9609 34.271L17.6361 35.0424C17.6242 35.1928 17.6005 35.4736 17.5688 35.8811C17.5372 36.2886 17.5213 36.6525 17.5213 36.973V50.3523C17.5213 50.9813 17.3987 51.5708 16.4374 52.2433C16.0972 52.4807 15.1319 52.9475 15.1319 51.9743V43.5004H12.5882C12.1055 43.5004 11.8009 43.2037 11.611 43.0139C11.4172 42.8319 11.0413 42.2622 11.3974 42.2622H15.1319V39.1646L15.1398 36.3954L15.1438 36.3914Z" fill="#231815"/>
<path d="M5.91427 52.1326C5.91427 51.6341 5.7679 51.2544 5.4712 50.9972C5.17449 50.7401 5.20219 50.7005 4.54944 50.4631L4.73142 50.0161L8.41054 50.7915C8.39471 50.9379 8.37098 51.2227 8.34329 51.6302C8.31164 52.0416 8.29581 52.4016 8.29581 52.722V55.4755C8.29581 55.7207 8.37098 55.8948 8.52922 56.0135C8.68746 56.1361 8.84966 56.1796 9.01581 56.1796H17.5213V57.4179H8.27999C7.67867 57.4179 7.13274 57.3546 6.65801 57.1291C6.21889 56.9155 5.95383 56.4605 5.91032 55.7682V52.1405L5.91427 52.1326Z" fill="#231815"/>
<path d="M7.5165 65.3142V65.5081C6.89145 65.5595 6.82419 65.6188 6.82419 66.5406V69.5234C6.82419 70.4531 6.72134 71.0465 6.11606 71.5687C5.86683 71.7784 5.53848 71.9406 5.30507 71.9999L5.22595 71.8061C5.73233 71.5845 5.96573 71.2404 6.06068 70.7577C6.13189 70.3621 6.14771 69.9032 6.14771 69.2109V66.5406C6.14771 65.6188 6.08441 65.5595 5.39211 65.5081V65.3142H7.51254H7.5165Z" fill="#231815"/>
<path d="M9.11471 66.5406C9.11471 65.6188 9.05141 65.5595 8.40657 65.5081V65.3142H11.9235C11.9314 65.4566 11.971 66.0738 12.0105 66.5485L11.8088 66.5722C11.7297 66.1489 11.6387 65.9313 11.52 65.7929C11.3934 65.6505 11.1283 65.5911 10.6378 65.5911H10.0286C9.80306 65.5911 9.78723 65.607 9.78723 65.8522V67.7788H10.5982C11.2905 67.7788 11.3143 67.7274 11.3934 67.1023H11.5951V68.7757H11.3934C11.3538 68.4632 11.3301 68.2931 11.2233 68.2021C11.1204 68.1111 10.9424 68.0913 10.5982 68.0913H9.78723V69.5867C9.78723 70.0694 9.83471 70.3226 9.98899 70.4254C10.1433 70.5283 10.4321 70.5283 10.8079 70.5283C11.2668 70.5283 11.6426 70.4848 11.8206 70.283C11.9591 70.1327 12.0857 69.8439 12.2044 69.4562L12.4061 69.4799C12.3666 69.7173 12.1886 70.5797 12.1253 70.8052H8.32745V70.6114C9.05141 70.5599 9.11471 70.5006 9.11471 69.5788V66.5366V66.5406Z" fill="#231815"/>
<path d="M17.8101 68.3012C17.8101 69.8717 17.0229 70.659 16.0615 70.659C14.8905 70.659 14.0796 69.5078 14.0796 67.8779C14.0796 66.248 14.8826 65.4687 15.8281 65.4687C16.9754 65.4687 17.8101 66.4735 17.8101 68.3012ZM16.0338 65.1878C14.2418 65.1878 13.2963 66.699 13.2963 68.1192C13.2963 69.7175 14.3723 70.932 15.8914 70.932C17.4105 70.932 18.5895 69.7412 18.5895 67.9808C18.5895 66.3153 17.4264 65.1838 16.0378 65.1838L16.0338 65.1878Z" fill="#231815"/>
<path d="M24.3771 70.8685H24.1675L20.6822 66.414H20.6664V68.57C20.6664 69.4562 20.698 69.9151 20.7297 70.1762C20.7692 70.4729 20.9868 70.5916 21.5169 70.6153V70.8092H19.5903V70.6153C20.0334 70.5995 20.2391 70.4729 20.2826 70.1762C20.3143 69.9151 20.3459 69.4562 20.3459 68.57V66.7344C20.3459 66.1252 20.338 65.9907 20.1917 65.7968C20.0374 65.5951 19.8237 65.5357 19.4835 65.5081V65.3142H20.6545L24.0369 69.5749H24.0528V67.5533C24.0528 66.6672 24.0211 66.2083 23.9895 65.9472C23.9499 65.6505 23.7323 65.5318 23.2022 65.5081V65.3142H25.1288V65.5081C24.6857 65.5239 24.48 65.6505 24.4365 65.9472C24.4048 66.2083 24.3732 66.6672 24.3732 67.5533V70.8685H24.3771Z" fill="#231815"/>
<path d="M28.1512 65.3142V65.5081C27.5262 65.5595 27.4589 65.6188 27.4589 66.5406V69.5234C27.4589 70.4531 27.356 71.0465 26.7508 71.5687C26.5015 71.7784 26.1732 71.9406 25.9398 71.9999L25.8607 71.8061C26.367 71.5845 26.6004 71.2404 26.6954 70.7577C26.7666 70.3621 26.7824 69.9032 26.7824 69.2109V66.5406C26.7824 65.6188 26.7191 65.5595 26.0268 65.5081V65.3142H28.1472H28.1512Z" fill="#231815"/>
<path d="M31.0668 65.3142V65.5081C30.4259 65.5595 30.3587 65.6188 30.3587 66.5406V68.3089C30.3587 69.0289 30.4457 69.567 30.695 69.9467C30.9442 70.3186 31.3121 70.5283 31.8501 70.5283C32.3565 70.5283 32.7719 70.2988 33.029 69.8953C33.2941 69.472 33.389 68.7283 33.389 68.0201V67.5652C33.389 66.679 33.3574 66.2122 33.3257 65.9511C33.2862 65.6544 33.0686 65.5357 32.5385 65.512V65.3182H34.4651V65.512C34.022 65.5278 33.8163 65.6544 33.7728 65.9511C33.7411 66.2122 33.7095 66.679 33.7095 67.5652V68.1309C33.7095 69.112 33.5631 69.8043 33.1002 70.3265C32.7561 70.7142 32.1785 70.9357 31.6128 70.9357C31.1697 70.9357 30.6673 70.825 30.2954 70.5045C29.8681 70.1406 29.6783 69.567 29.6783 68.6017V66.5406C29.6783 65.6188 29.615 65.5595 28.9385 65.5081V65.3142H31.0589H31.0668Z" fill="#231815"/>
<path d="M39.5684 65.3142V65.5081C38.9275 65.5595 38.8602 65.6188 38.8602 66.5406V68.3089C38.8602 69.0289 38.9473 69.567 39.1965 69.9467C39.4457 70.3186 39.8136 70.5283 40.3517 70.5283C40.858 70.5283 41.2734 70.2988 41.5306 69.8953C41.7956 69.472 41.8906 68.7283 41.8906 68.0201V67.5652C41.8906 66.679 41.8589 66.2122 41.8273 65.9511C41.7877 65.6544 41.5701 65.5357 41.04 65.512V65.3182H42.9666V65.512C42.5235 65.5278 42.3178 65.6544 42.2743 65.9511C42.2427 66.2122 42.211 66.679 42.211 67.5652V68.1309C42.211 69.112 42.0646 69.8043 41.6018 70.3265C41.2576 70.7142 40.68 70.9357 40.1183 70.9357C39.6752 70.9357 39.1688 70.825 38.8009 70.5045C38.3736 70.1406 38.1837 69.567 38.1837 68.6017V66.5406C38.1837 65.6188 38.1205 65.5595 37.444 65.5081V65.3142H39.5644H39.5684Z" fill="#231815"/>
<path d="M48.5407 70.8685H48.331L44.8457 66.414H44.8299V68.57C44.8299 69.4562 44.8615 69.9151 44.8932 70.1762C44.9327 70.4729 45.1503 70.5916 45.6804 70.6153V70.8092H43.7538V70.6153C44.1969 70.5995 44.4026 70.4729 44.4462 70.1762C44.4778 69.9151 44.5095 69.4562 44.5095 68.57V66.7344C44.5095 66.1252 44.5015 65.9907 44.3552 65.7968C44.2009 65.5951 43.9873 65.5357 43.647 65.5081V65.3142H44.818L48.2004 69.5749H48.2163V67.5533C48.2163 66.6672 48.1846 66.2083 48.153 65.9472C48.1134 65.6505 47.8958 65.5318 47.3657 65.5081V65.3142H49.2923V65.5081C48.8492 65.5239 48.6435 65.6505 48.6 65.9472C48.5684 66.2083 48.5367 66.6672 48.5367 67.5533V70.8685H48.5407Z" fill="#231815"/>
<path d="M51.5354 69.5828C51.5354 70.5045 51.5987 70.5639 52.2594 70.6153V70.8092H50.1389V70.6153C50.7956 70.5639 50.8629 70.5045 50.8629 69.5828V66.5406C50.8629 65.6188 50.7996 65.5595 50.1389 65.5081V65.3142H52.2594V65.5081C51.6027 65.5595 51.5354 65.6188 51.5354 66.5406V69.5828Z" fill="#231815"/>
<path d="M55.4598 70.8605C54.9138 69.3493 54.1424 67.2605 53.7982 66.3229C53.5411 65.6227 53.4303 65.5634 52.9477 65.512V65.3181H54.898V65.512L54.6409 65.5476C54.3442 65.5911 54.2967 65.6742 54.3837 65.9353C54.5934 66.5603 55.2105 68.2258 55.796 69.8082C56.2154 68.6412 56.9037 66.7225 57.0818 66.1726C57.236 65.69 57.153 65.5792 56.793 65.5397L56.5516 65.5159V65.3221H58.3081V65.5159C57.7701 65.5753 57.6989 65.6346 57.4022 66.3783C57.2993 66.6394 56.3024 69.1515 55.7011 70.8645H55.4598V70.8605Z" fill="#231815"/>
<path d="M59.7244 66.5406C59.7244 65.6188 59.6611 65.5595 59.0163 65.5081V65.3142H62.5332C62.5411 65.4566 62.5807 66.0738 62.6202 66.5485L62.4185 66.5722C62.3393 66.1489 62.2483 65.9313 62.1297 65.7929C62.0031 65.6505 61.738 65.5911 61.2475 65.5911H60.6382C60.4127 65.5911 60.3969 65.607 60.3969 65.8522V67.7788H61.2079C61.9002 67.7788 61.9239 67.7274 62.0031 67.1023H62.2048V68.7757H62.0031C61.9635 68.4632 61.9398 68.2931 61.833 68.2021C61.7301 68.1111 61.5521 68.0913 61.2079 68.0913H60.3969V69.5867C60.3969 70.0694 60.4444 70.3226 60.5987 70.4254C60.753 70.5283 61.0418 70.5283 61.4176 70.5283C61.8765 70.5283 62.2523 70.4848 62.4303 70.283C62.5688 70.1327 62.6954 69.8439 62.8141 69.4562L63.0158 69.4799C62.9763 69.7173 62.7982 70.5797 62.7349 70.8052H58.9371V70.6114C59.6611 70.5599 59.7244 70.5006 59.7244 69.5788V66.5366V66.5406Z" fill="#231815"/>
<path d="M65.247 65.8324C65.247 65.6623 65.2708 65.6228 65.3182 65.603C65.3815 65.5793 65.4963 65.5595 65.7692 65.5595C66.3705 65.5595 66.9798 65.9155 66.9798 66.8017C66.9798 67.2171 66.8611 67.6285 66.513 67.9173C66.2954 68.1032 66.0382 68.1467 65.7099 68.1467H65.2431V65.8324H65.247ZM65.247 68.392H65.6822C65.9314 68.392 66.058 68.4751 66.1886 68.6966C66.4141 69.0922 66.7503 69.7212 66.9996 70.101C67.3042 70.5678 67.585 70.8606 68.5108 70.8883H68.6215L68.6374 70.7261C68.3486 70.6509 68.2022 70.5164 68.036 70.3028C67.8185 70.0496 67.6523 69.8201 67.3635 69.3731C67.1222 69.0012 66.7938 68.4157 66.6475 68.1626C67.2963 67.8817 67.7077 67.3832 67.7077 66.683C67.7077 66.1924 67.498 65.8127 67.1776 65.603C66.8809 65.3933 66.422 65.3142 65.9077 65.3142H63.8664V65.5081C64.5072 65.5595 64.5745 65.6188 64.5745 66.5406V69.5828C64.5745 70.5045 64.5112 70.5639 63.8347 70.6153V70.8092H65.971V70.6153C65.3143 70.5639 65.247 70.5045 65.247 69.5828V68.392Z" fill="#231815"/>
<path d="M69.48 69.3218C69.6066 69.7174 70.018 70.659 70.8686 70.659C71.4778 70.659 71.8655 70.2277 71.8655 69.5671C71.8655 68.8471 71.3433 68.5543 70.829 68.2893C70.564 68.1548 69.48 67.7552 69.48 66.7425C69.48 65.9077 70.0813 65.1877 71.1336 65.1877C71.3591 65.1877 71.6321 65.2392 71.7983 65.2985C71.9011 65.3341 72.0158 65.3737 72.1029 65.3935C72.1345 65.6902 72.182 66.0264 72.2492 66.5328L72.0475 66.5565C71.909 66.0581 71.6875 65.4647 70.9556 65.4647C70.3859 65.4647 70.0892 65.9038 70.0892 66.4023C70.0892 67.0273 70.5165 67.3082 71.1257 67.593C71.6558 67.8383 72.4985 68.1864 72.4985 69.2348C72.4985 70.2159 71.735 70.9319 70.7143 70.9319C70.4255 70.9319 70.1525 70.8726 69.9508 70.8053C69.749 70.7381 69.6066 70.6708 69.5077 70.6273C69.4444 70.4058 69.3534 69.8084 69.2743 69.3495L69.476 69.3139L69.48 69.3218Z" fill="#231815"/>
<path d="M74.8681 69.5828C74.8681 70.5045 74.9314 70.5639 75.5921 70.6153V70.8092H73.4716V70.6153C74.1283 70.5639 74.1956 70.5045 74.1956 69.5828V66.5406C74.1956 65.6188 74.1323 65.5595 73.4716 65.5081V65.3142H75.5921V65.5081C74.9354 65.5595 74.8681 65.6188 74.8681 66.5406V69.5828Z" fill="#231815"/>
<path d="M79.0615 69.583C79.0615 70.5047 79.1248 70.5641 79.912 70.6155V70.8094H77.5661V70.6155C78.3217 70.5641 78.385 70.5047 78.385 69.583V65.5953H78.0092C77.2931 65.5953 77.0795 65.7061 76.9569 65.8643C76.8698 65.983 76.771 66.2203 76.676 66.5922H76.4742C76.5059 66.0779 76.5534 65.5359 76.5692 65.1047H76.68C76.7986 65.2986 76.8817 65.3144 77.0993 65.3144H80.3907C80.6004 65.3144 80.64 65.263 80.7666 65.1047H80.8773C80.8852 65.4608 80.9248 66.0779 80.9644 66.5685L80.7626 66.5922C80.6835 66.1847 80.5925 65.9513 80.4738 65.8129C80.3353 65.6507 80.0901 65.5913 79.5916 65.5913H79.0536V69.579L79.0615 69.583Z" fill="#231815"/>
<path d="M84.2638 69.5828C84.2638 70.5045 84.3271 70.5639 85.0985 70.6153V70.8092H82.7842V70.6153C83.524 70.5639 83.5873 70.5045 83.5873 69.5828V68.6175C83.5873 68.4672 83.5635 68.3881 83.4093 68.1111C83.0493 67.4505 82.7367 66.8412 82.3886 66.2162C82.0444 65.5911 82.0128 65.5634 81.546 65.5081V65.3142H83.4805V65.5081L83.1125 65.5595C82.9108 65.5951 82.8554 65.6703 82.9939 65.9314C83.3539 66.6395 83.7257 67.3437 84.1174 68.036C84.4537 67.3595 84.8176 66.6672 85.1143 65.9749C85.2528 65.6703 85.1855 65.5872 84.8809 65.5516L84.5605 65.5081V65.3142H86.3288V65.5081C85.7908 65.5595 85.7512 65.6703 85.415 66.2281C85.055 66.8215 84.7504 67.403 84.4022 68.0795C84.2835 68.3089 84.2677 68.3604 84.2677 68.5344V69.5828H84.2638Z" fill="#231815"/>
</g>
<defs>
<linearGradient id="paint0_linear_947_3161" x1="130.508" y1="0.2232" x2="130.508" y2="57.1989" gradientUnits="userSpaceOnUse">
<stop stop-color="#00ABEB"/>
<stop offset="1" stop-color="#00498A"/>
</linearGradient>
<clipPath id="clip0_947_3161">
<rect width="147.094" height="72" fill="white"/>
</clipPath>
</defs>
</svg>
